<svg id="Layer_1" data-name="Layer 1" xmlns="http://www.w3.org/2000/svg" viewBox="0 0 218 58"><defs><style>.cls-1{fill:#fff;}</style></defs><title>logo</title><path class="cls-1" d="M9.108,56.295H0L10.3,0H25.537L38.305,41.368,45.2,0h9.109l-10.3,56.295H28.772L16,14.841Z"/><path class="cls-1" d="M95.593,45.462a25.528,25.528,0,0,0-.425,3.582,4.127,4.127,0,0,0,.808,2.644A3.124,3.124,0,0,0,98.4,52.8a6.035,6.035,0,0,1-3.15,3.881A11.179,11.179,0,0,1,89.89,58a8.428,8.428,0,0,1-4.6-1.237,5.744,5.744,0,0,1-2.554-3.625A12.141,12.141,0,0,1,77.5,56.763,19.985,19.985,0,0,1,70.4,58q-6.9,0-9.96-4.179t-3.065-12.2a39.491,39.491,0,0,1,2.852-15.14,25.714,25.714,0,0,1,8.555-11.173,22.384,22.384,0,0,1,13.7-4.223,21.688,21.688,0,0,1,8.6,1.706l10.981-1.364ZM84.868,16.717a10.175,10.175,0,0,0-3.065-.511q-4,0-6.3,4.052t-3.745,12.5a65.629,65.629,0,0,0-1.532,12.794,11.253,11.253,0,0,0,1.021,5.245,3.78,3.78,0,0,0,3.661,1.92A6.478,6.478,0,0,0,80.7,49.087a25.289,25.289,0,0,0,2.979-8.572l4-22.262A7.961,7.961,0,0,0,84.868,16.717Z"/><path class="cls-1" d="M137.644,11.088a12.848,12.848,0,0,1,7.108,1.749,9.1,9.1,0,0,1,3.7,5.5,13.968,13.968,0,0,1,6-5.5,19.208,19.208,0,0,1,8.3-1.749q5.618,0,8.6,2.644t2.979,7.847a30.606,30.606,0,0,1-.723,6.313q-0.724,3.412-2.256,9.638-1.192,4.437-1.744,6.994a20.609,20.609,0,0,0-.554,4.18,4.766,4.766,0,0,0,.766,2.9A3.319,3.319,0,0,0,172.29,52.8a6.361,6.361,0,0,1-3.192,3.881A11.282,11.282,0,0,1,163.607,58a7.876,7.876,0,0,1-5.618-1.919,7.415,7.415,0,0,1-2.043-5.672,29.043,29.043,0,0,1,.639-5.587q0.639-3.2,2-8.914,1.192-5.031,1.831-8.1a26.006,26.006,0,0,0,.639-5.117,5.813,5.813,0,0,0-1.064-3.668,3.8,3.8,0,0,0-3.192-1.364q-6.47,0-9.108,13.818l-4.768,24.821-13.364,1.364,4.6-22.091c0.056-.226.113-0.469,0.17-0.724s0.113-.583.171-0.981,0.368-1.976.936-4.734a34.466,34.466,0,0,0,.852-6.525,5.628,5.628,0,0,0-1.064-3.625,3.958,3.958,0,0,0-3.277-1.322q-3.917,0-6,4.009a35.808,35.808,0,0,0-3.192,9.809L117.9,56.295l-13.279,1.364,8.767-44.865,10.9-1.364-1.192,8.017Q127.429,11.088,137.644,11.088Z"/><path class="cls-1" d="M218,21.153a12.316,12.316,0,0,1-6.257,11q-6.257,3.925-16.982,3.924h-2.979a39.447,39.447,0,0,0-.255,4.35q0,4.267,1.7,6.44t5.789,2.174a14.283,14.283,0,0,0,6.639-1.578,10.963,10.963,0,0,0,4.681-4.478q2.044,0.941,2.043,3.753a8.321,8.321,0,0,1-2.341,5.673,15.738,15.738,0,0,1-6.342,4.094A24.932,24.932,0,0,1,194.932,58q-7.917,0-12.088-4.392t-4.171-13.434A34.875,34.875,0,0,1,181.61,25.93a25.164,25.164,0,0,1,8.852-10.747,24.88,24.88,0,0,1,14.514-4.1Q218,11.088,218,21.153Zm-21.451-.939a34.458,34.458,0,0,0-4.171,11.941A16.574,16.574,0,0,0,202.678,29a10.138,10.138,0,0,0,4.171-8.53q0-4.776-3.745-4.776T196.549,20.215Z"/></svg>